<svg width="48" height="48" viewBox="0 0 48 48" fill="none" xmlns="http://www.w3.org/2000/svg">
  <path d="M 40 31 L 40 40 L 31 40 L 31 36.142 L 33.572 36.142 C 36.142 36.142 36.142 36.142 36.142 33.572 L 36.142 31 L 40 31 Z M 17 40 L 8 40 L 8 31 L 11.858 31 L 11.858 33.572 C 11.858 36.142 11.858 36.142 14.428 36.142 L 17 36.142 L 17 40 Z M 8 17 L 8 8 L 17 8 L 17 11.858 L 14.428 11.858 C 11.858 11.858 11.858 11.858 11.858 14.428 L 11.858 17 L 8 17 Z M 31 8 L 40 8 L 40 17 L 36.142 17 L 36.142 14.428 C 36.142 11.858 36.142 11.858 33.572 11.858 L 31 11.858 L 31 8 Z" style="fill: rgb(79, 232, 131);"></path>
</svg>